Barbie er tilbake som Merliah, den trivelige og velkledde surfestjernen som også er en magisk havfrueprinsesse! I denne spennende oppfølgeren reiser Maerliah til Australia for å delta i sin aller viktigste surfekonkurranse. Men når den onde havfruen Eris rømmer fra malstrømmen og planlegger å kidnappe tronen i Oceana, må Merliah og vennene hennes våge seg ut på dypt vann og prøve å stanse.
 


Skuespillere

Diana Kaarina, Tabitha St. Germain



Regissør

William Lau



Originaltittel

Barbie in a Mermaid Tale 2



Varighet

DVD: 1 tim 12 min


Sjangre

Barn og familie, Fantasy, Tegnet/Animert


Releasedato

Produksjonsår: 2012


eneral
Complete name: BARBIEMERMAIDTALE2F8G116FF1_DES.Title2.avi
Format                                   : AVI
Format/Info                              : Audio Video Interleave
File size                                : 981 MiB
Duration                                 : 1h 12mn
Overall bit rate                         : 1 881 Kbps
Movie name                               : BARBIEMERMAIDTALE2F8G116FF1_DES.Title2.DVDRip
Writing application                      : Lavf53.21.0
Original source form/Name                : BARBIEMERMAIDTALE2F8G116FF1_DES

Video
ID                                       : 0
Format                                   : AVC
Format/Info                              : Advanced Video Codec
Format profile                           : Main@L3.0
Format settings, CABAC                   : Yes
Format settings, ReFrames                : 2 frames
Codec ID                                 : H264
Duration                                 : 1h 12mn
Bit rate                                 : 1 486 Kbps
Width                                    : 720 pixels
Height                                   : 404 pixels
Display aspect ratio                     : 16:9
Frame rate                               : 25.000 fps
Color space                              : YUV
Chroma subsampling                       : 4:2:0
Bit depth                                : 8 bits
Scan type                                : Progressive
Bits/(Pixel*Frame)                       : 0.204
Stream size                              : 775 MiB (79%)
Writing library                          : x264 core
Color primaries                          : BT.601 NTSC
Transfer characteristics                 : BT.709
Matrix coefficients                      : BT.601

Audio
ID                                       : 1
Format                                   : AC-3
Format/Info                              : Audio Coding 3
Mode extension                           : CM (complete main)
Format settings, Endianness              : Big
Codec ID                                 : 2000
Duration                                 : 1h 12mn
Bit rate mode                            : Constant
Bit rate                                 : 384 Kbps
Channel(s)                               : 6 channels
Channel positions                        : Front: L C R, Side: L R, LFE
Sampling rate                            : 48.0 KHz
Bit depth                                : 16 bits
Compression mode                         : Lossy
Stream size                              : 200 MiB (20%)
Alignment                                : Aligned on interleaves
Interleave, duration                     : 32 ms (0.80 video frame)

